<svg xmlns="http://www.w3.org/2000/svg" width="1500" height="1500" viewBox="0 0 1500 1500" version="1.1"><path d="M 91 744 L 91 967 349.500 967 C 491.675 967, 608 966.649, 608 966.221 C 608 965.792, 607.100 964.793, 606 964 C 604.900 963.207, 604 962.067, 604 961.466 C 604 960.866, 602.650 959.081, 601 957.500 C 599.350 955.919, 598 954.278, 598 953.854 C 598 953.429, 596.874 951.826, 595.499 950.291 C 590.357 944.555, 587 940.207, 587 939.283 C 587 938.759, 585.650 937.128, 584 935.658 C 582.350 934.187, 581 932.490, 581 931.886 C 581 931.282, 579.875 929.903, 578.500 928.821 C 577.125 927.740, 576 926.297, 576 925.615 C 576 924.932, 574.650 923.081, 573 921.500 C 571.350 919.919, 570 918.035, 570 917.313 C 570 916.233, 531.395 916, 352.519 916 L 135.038 916 134.495 913.750 C 134.197 912.512, 134.076 835.675, 134.226 743 L 134.500 574.500 749 574.249 L 1363.500 573.998 1363.253 744.749 L 1363.006 915.500 1016.333 915.751 C 694.820 915.985, 669.528 915.883, 667.830 914.346 C 666.824 913.435, 666 912.195, 666 911.591 C 666 910.986, 646.200 890.695, 622 866.500 C 597.800 842.305, 578 822.254, 578 821.943 C 578 821.632, 570.517 813.932, 561.370 804.833 L 544.741 788.288 556.514 787.563 C 562.989 787.164, 569.010 786.468, 569.893 786.017 C 570.777 785.565, 574.425 783.780, 578 782.050 C 584.740 778.788, 594.796 771.294, 594.926 769.437 C 594.967 768.852, 596.350 767.081, 598 765.500 C 599.650 763.919, 601 762.183, 601 761.642 C 601 761.100, 601.659 759.929, 602.464 759.040 C 604.708 756.560, 610.696 744.662, 611.467 741.149 C 611.845 739.430, 612.569 737.766, 613.077 737.452 C 613.585 737.139, 614 735.585, 614 734 C 614 732.415, 614.481 730.821, 615.068 730.458 C 615.656 730.095, 615.895 729.168, 615.600 728.399 C 615.304 727.629, 615.499 727, 616.031 727 C 616.564 727, 617 725.425, 617 723.500 C 617 721.575, 617.416 720, 617.925 720 C 618.434 720, 619.167 715.940, 619.556 710.978 C 619.944 706.016, 620.653 701.715, 621.131 701.419 C 622.268 700.716, 622.266 661, 621.129 661 C 620.650 661, 619.942 657.791, 619.556 653.869 C 619.169 649.947, 618.469 646.009, 618 645.119 C 617.530 644.228, 616.815 642.600, 616.409 641.500 C 616.004 640.400, 615.573 639.275, 615.452 639 C 615.330 638.725, 614.902 637.487, 614.499 636.250 C 614.096 635.013, 613.405 634, 612.963 634 C 612.521 634, 611.862 632.650, 611.500 631 C 611.138 629.350, 610.427 628, 609.921 628 C 609.414 628, 609 627.425, 609 626.723 C 609 625.304, 595.961 612, 594.569 612 C 594.085 612, 592.259 610.910, 590.512 609.577 C 588.764 608.244, 585.572 606.829, 583.417 606.432 C 581.263 606.036, 579.220 605.280, 578.878 604.753 C 578.535 604.226, 574.359 603.552, 569.598 603.255 C 564.837 602.957, 560.703 602.329, 560.412 601.857 C 560.120 601.386, 523.909 601, 479.941 601 L 400 601 400 749.500 L 400 898 422 898 L 444 898 444 826 C 444 786.400, 444.340 754, 444.757 754 C 446.057 754, 502 810.445, 502 811.756 C 502 812.440, 502.597 813, 503.326 813 C 504.547 813, 509 817.008, 509 818.107 C 509 818.370, 521.375 830.930, 536.500 846.018 C 551.625 861.107, 564 873.916, 564 874.483 C 564 875.051, 575.250 886.758, 589 900.500 C 602.750 914.242, 614 925.841, 614 926.276 C 614 926.711, 615.238 928.357, 616.750 929.933 C 621.374 934.751, 627 941.788, 627 942.754 C 627 943.258, 628.350 944.872, 630 946.342 C 631.650 947.813, 633 949.491, 633 950.072 C 633 950.654, 634.350 952.265, 636 953.653 C 637.650 955.042, 639.011 956.700, 639.025 957.339 C 639.039 957.978, 640.855 960.413, 643.061 962.750 L 647.072 967 1031.036 967 L 1415 967 1415 744 L 1415 521 753 521 L 91 521 91 744 M 942 630.813 L 942 669.626 945 672.500 C 946.650 674.081, 948 675.758, 948 676.227 C 948 676.696, 949.800 678.792, 952 680.885 C 954.200 682.978, 956 685.119, 956 685.642 C 956 686.166, 957.800 688.352, 960 690.500 C 962.200 692.648, 964 694.791, 964 695.261 C 964 695.732, 965.531 697.778, 967.402 699.809 C 975.436 708.528, 979 712.784, 979 713.659 C 979 714.173, 980.800 716.352, 983 718.500 C 985.200 720.648, 987 722.766, 987 723.206 C 987 723.645, 988.800 725.631, 991 727.619 C 993.200 729.607, 995 731.729, 995 732.335 C 995 732.941, 997.347 735.814, 1000.216 738.719 L 1005.432 744 881.216 744 L 757 744 757 740 C 757 737.800, 757.385 736, 757.856 736 C 758.327 736, 759.015 732.747, 759.385 728.772 C 759.754 724.796, 760.494 721.106, 761.028 720.572 C 761.563 720.037, 762 718.367, 762 716.859 C 762 715.351, 762.462 713.833, 763.027 713.484 C 763.591 713.135, 763.992 712.321, 763.918 711.675 C 763.699 709.770, 765.160 706, 766.117 706 C 766.602 706, 767 704.861, 767 703.469 C 767 702.076, 767.675 700.678, 768.500 700.362 C 769.325 700.045, 770 699.359, 770 698.838 C 770 696.969, 774.070 689, 775.025 689 C 775.561 689, 776 688.403, 776 687.674 C 776 686.945, 777.125 685.292, 778.500 684 C 779.875 682.708, 781 681.156, 781 680.551 C 781 679.118, 795.209 665, 796.651 665 C 797.258 665, 798.305 664.337, 798.978 663.526 C 799.651 662.716, 801.731 661.766, 803.600 661.415 C 805.470 661.064, 807 660.398, 807 659.934 C 807 659.470, 808.688 658.821, 810.750 658.491 C 812.813 658.161, 815.281 657.465, 816.236 656.945 C 818.434 655.749, 831.697 655.701, 832.430 656.887 C 832.731 657.374, 834.508 658.060, 836.378 658.411 C 838.248 658.762, 841.741 660.157, 844.139 661.512 C 846.538 662.866, 849.175 664.284, 850 664.663 C 850.825 665.041, 852.491 666.397, 853.702 667.675 C 854.913 668.954, 856.278 670, 856.734 670 C 857.785 670, 869 681.288, 869 682.346 C 869 682.780, 870.575 684.620, 872.500 686.435 C 874.425 688.251, 876 690.176, 876 690.713 C 876 691.250, 876.900 692.505, 878 693.500 C 879.100 694.495, 880 695.722, 880 696.226 C 880 696.730, 880.705 697.848, 881.567 698.709 C 882.989 700.131, 883.496 699.922, 887.067 696.435 C 889.230 694.323, 891 692.078, 891 691.447 C 891 690.816, 892.350 689.265, 894 688 C 895.650 686.735, 897 685.172, 897 684.525 C 897 683.878, 898.125 682.292, 899.500 681 C 900.875 679.708, 902 678.146, 902 677.529 C 902 676.911, 903.331 675.302, 904.958 673.953 C 906.584 672.604, 907.934 671.069, 907.958 670.542 C 907.981 670.015, 909.656 667.888, 911.681 665.815 C 915.206 662.205, 915.301 661.927, 913.931 659.272 C 913.144 657.748, 911.487 655.680, 910.250 654.677 C 909.013 653.675, 908 652.297, 908 651.615 C 908 650.932, 906.650 649.081, 905 647.500 C 903.350 645.919, 902 644.254, 902 643.799 C 902 642.711, 885.277 626, 884.189 626 C 883.727 626, 882.292 624.875, 881 623.500 C 879.708 622.125, 878.232 621, 877.720 621 C 877.207 621, 875.148 619.710, 873.144 618.134 C 871.140 616.557, 868.375 614.921, 867 614.499 C 865.625 614.076, 864.275 613.443, 864 613.091 C 862.732 611.469, 852.373 606.927, 848.650 606.359 C 846.367 606.011, 843.868 605.226, 843.095 604.613 C 842.180 603.888, 835.355 603.500, 823.499 603.500 C 811.642 603.500, 804.818 603.888, 803.904 604.613 C 803.132 605.226, 800.647 606.009, 798.382 606.354 C 796.118 606.699, 792.968 607.658, 791.382 608.484 C 789.797 609.311, 787.894 609.990, 787.154 609.994 C 786.414 609.997, 784.391 611.013, 782.659 612.250 C 780.926 613.487, 777.997 615.313, 776.150 616.308 C 772.072 618.503, 771.303 619.103, 764.049 625.750 C 760.897 628.638, 757.797 631, 757.160 631 C 756.522 631, 756 631.522, 756 632.160 C 756 632.797, 753.638 635.897, 750.750 639.049 C 747.862 642.200, 745.050 645.415, 744.500 646.194 C 742.356 649.228, 740.955 651.592, 740.022 653.750 C 739.487 654.987, 738.695 656, 738.261 656 C 737.439 656, 734 663.271, 734 665.007 C 734 665.553, 733.586 666, 733.079 666 C 732.573 666, 731.862 667.350, 731.500 669 C 731.138 670.650, 730.479 672, 730.037 672 C 729.299 672, 727.908 675.104, 727.573 677.500 C 727.495 678.050, 726.637 680.075, 725.665 682 C 724.693 683.925, 723.635 687.413, 723.313 689.750 C 722.991 692.087, 722.362 694, 721.914 694 C 721.466 694, 720.793 696.710, 720.418 700.022 C 720.043 703.335, 719.346 706.286, 718.868 706.581 C 718.391 706.877, 718 709.090, 718 711.500 C 718 713.910, 717.498 716.192, 716.885 716.571 C 716.201 716.994, 715.951 719.140, 716.238 722.130 C 716.496 724.808, 716.322 727, 715.853 727 C 715.384 727, 715 730.825, 715 735.500 L 715 744 705.500 744 L 696 744 696 672.500 L 696 601 671 601 L 646 601 646 672.500 L 646 744 634.980 744 L 623.960 744 624.230 765.250 L 624.500 786.500 635.250 786.784 L 646 787.068 646 814.879 C 646 841.420, 646.091 842.773, 648 844.500 C 649.100 845.495, 650 846.832, 650 847.471 C 650 848.110, 651.575 850.026, 653.500 851.731 C 655.425 853.435, 657 855.234, 657 855.728 C 657 856.222, 658.350 857.919, 660 859.500 C 661.650 861.081, 663 862.881, 663 863.500 C 663 864.119, 664.350 865.919, 666 867.500 C 667.650 869.081, 669 870.754, 669 871.218 C 669 871.682, 670.575 873.444, 672.500 875.134 C 674.425 876.824, 676 878.751, 676 879.417 C 676 880.082, 677.350 881.919, 679 883.500 C 680.650 885.081, 682 886.773, 682 887.260 C 682 887.748, 683.800 889.762, 686 891.737 C 688.200 893.712, 690 895.860, 690 896.509 C 690 897.978, 693.250 901, 694.829 901 C 695.710 901, 696 886.890, 696 844 L 696 787 707 787 L 718 787 718 790.441 C 718 792.334, 718.406 794.133, 718.902 794.439 C 719.397 794.746, 720.117 797.697, 720.500 800.998 C 720.883 804.299, 721.543 807, 721.967 807 C 722.390 807, 722.992 808.903, 723.304 811.228 C 723.616 813.554, 724.350 815.617, 724.935 815.812 C 725.521 816.007, 726 817.179, 726 818.417 C 726 819.654, 726.332 820.998, 726.737 821.404 C 727.143 821.809, 727.528 822.672, 727.594 823.321 C 727.833 825.696, 729.255 829, 730.037 829 C 730.479 829, 731.138 830.350, 731.500 832 C 731.862 833.650, 732.537 835, 733 835 C 733.463 835, 734.131 836.319, 734.485 837.931 C 734.839 839.543, 735.844 841.455, 736.719 842.181 C 737.594 842.906, 738.922 844.850, 739.670 846.500 C 741.671 850.914, 743.230 853.226, 745.750 855.518 C 746.987 856.643, 748 858.008, 748 858.551 C 748 859.936, 767.283 879, 768.685 879 C 769.316 879, 769.983 879.354, 770.167 879.786 C 771.164 882.139, 788.803 892, 792.014 892 C 793.041 892, 794.144 892.424, 794.464 892.942 C 794.785 893.460, 797.174 894.198, 799.773 894.581 C 802.373 894.964, 804.821 895.778, 805.214 896.389 C 806.185 897.900, 847.227 897.865, 849.139 896.352 C 849.888 895.760, 852.941 895, 855.923 894.664 C 858.906 894.328, 861.809 893.591, 862.373 893.027 C 862.938 892.462, 864.399 892, 865.619 892 C 867.908 892, 874.243 889.078, 874.833 887.750 C 875.017 887.337, 875.607 887, 876.145 887 C 878.101 887, 887.734 881.951, 889.499 880.001 C 890.495 878.901, 891.676 878, 892.124 878 C 893.162 878, 905 866.163, 905 865.125 C 905 864.698, 906.125 863.292, 907.500 862 C 908.875 860.708, 910 859.041, 910 858.294 C 910 857.548, 910.631 856.695, 911.401 856.399 C 912.172 856.104, 913.067 855.105, 913.390 854.181 C 913.713 853.256, 914.887 851.150, 916 849.500 C 917.113 847.850, 918.296 845.712, 918.628 844.750 C 918.961 843.788, 919.595 843, 920.037 843 C 920.479 843, 921.138 841.650, 921.500 840 C 921.862 838.350, 922.573 837, 923.079 837 C 923.586 837, 924.014 835.987, 924.032 834.750 C 924.049 833.513, 924.724 831.626, 925.532 830.559 C 926.339 829.491, 927 827.579, 927 826.309 C 927 825.039, 927.435 824, 927.966 824 C 928.497 824, 929.231 821.740, 929.597 818.978 C 929.964 816.215, 930.654 813.714, 931.132 813.419 C 931.609 813.123, 932 811.135, 932 809 C 932 806.865, 932.501 804.808, 933.114 804.429 C 933.780 804.018, 934.020 802.183, 933.709 799.870 C 933.424 797.742, 933.597 796, 934.095 796 C 934.593 796, 935 793.975, 935 791.500 L 935 787 970.500 787 L 1006 787 1006 846.500 C 1006 890.682, 1006.296 906, 1007.150 906 C 1007.783 906, 1017.229 897.112, 1028.142 886.250 L 1047.984 866.500 1047.992 826.750 L 1048 787 1128 787 L 1208 787 1208 846.583 C 1208 884.742, 1208.350 906.047, 1208.972 905.833 C 1209.507 905.650, 1218.957 896.526, 1229.972 885.558 L 1250 865.616 1250 826.308 L 1250 787 1270.250 786.968 C 1285.622 786.944, 1290.927 786.613, 1292.272 785.592 C 1293.879 784.372, 1294.018 782.411, 1293.772 764.374 L 1293.500 744.500 1272.210 744 L 1250.919 743.500 1255.960 738.538 C 1258.732 735.808, 1261 733.134, 1261 732.596 C 1261 732.057, 1262.800 729.938, 1265 727.886 C 1267.200 725.835, 1269 723.763, 1269 723.281 C 1269 722.800, 1270.800 720.648, 1273 718.500 C 1275.200 716.352, 1277 714.197, 1277 713.712 C 1277 712.709, 1288.840 698.923, 1290.750 697.700 C 1291.438 697.260, 1292 696.339, 1292 695.653 C 1292 694.967, 1293.800 692.648, 1296 690.500 C 1298.200 688.352, 1300 686.235, 1300 685.797 C 1300 685.359, 1301.800 683.200, 1304 681 C 1306.200 678.800, 1308 676.641, 1308 676.203 C 1308 675.765, 1309.800 673.648, 1312 671.500 C 1314.200 669.352, 1316.001 667.123, 1316.002 666.547 C 1316.003 665.971, 1317.803 663.807, 1320.002 661.738 C 1322.201 659.669, 1324 657.623, 1324 657.191 C 1324 656.759, 1325.800 654.648, 1328 652.500 C 1330.200 650.352, 1332 648.170, 1332 647.651 C 1332 646.819, 1334.461 643.876, 1343.569 633.814 C 1346.745 630.304, 1346.837 627.542, 1343.750 628.370 C 1342.513 628.701, 1327.873 628.979, 1311.219 628.986 C 1283.290 628.999, 1280.889 629.136, 1280.315 630.750 C 1279.972 631.712, 1277.961 634.152, 1275.846 636.172 C 1273.731 638.191, 1272 640.237, 1272 640.719 C 1272 641.200, 1270.200 643.352, 1268 645.500 C 1265.800 647.648, 1264 649.803, 1264 650.288 C 1264 651.291, 1252.160 665.077, 1250.250 666.300 C 1249.563 666.740, 1249 667.661, 1249 668.347 C 1249 669.033, 1247.200 671.352, 1245 673.500 C 1242.800 675.648, 1241 677.765, 1241 678.203 C 1241 678.641, 1239.200 680.800, 1237 683 C 1234.800 685.200, 1233 687.380, 1233 687.845 C 1233 688.310, 1232.165 689.446, 1231.145 690.369 C 1229.196 692.133, 1226 691.652, 1226 689.596 C 1226 688.941, 1224.200 686.648, 1222 684.500 C 1219.800 682.352, 1218 680.197, 1218 679.711 C 1218 678.848, 1217.173 677.864, 1207.645 667.396 C 1205.090 664.589, 1203 661.868, 1203 661.349 C 1203 660.830, 1201.200 658.648, 1199 656.500 C 1196.800 654.352, 1195 652.200, 1195 651.719 C 1195 651.237, 1193.200 649.165, 1191 647.114 C 1188.800 645.062, 1187 642.939, 1187 642.395 C 1187 641.851, 1185.200 639.648, 1183 637.500 C 1180.800 635.352, 1179 633.183, 1179 632.680 C 1179 632.177, 1177.200 630.019, 1175 627.884 C 1172.800 625.749, 1171 623.643, 1171 623.204 C 1171 622.765, 1169.200 620.648, 1167 618.500 C 1164.800 616.352, 1163 614.189, 1163 613.694 C 1163 613.198, 1159.737 609.127, 1155.750 604.646 C 1151.763 600.166, 1148.002 595.600, 1147.393 594.500 C 1146.784 593.400, 1145.557 592.356, 1144.666 592.181 C 1143.227 591.898, 1143.015 593.918, 1142.773 610.181 L 1142.500 628.500 1111.164 628.764 C 1085.751 628.979, 1079.561 629.296, 1078.414 630.443 C 1077.636 631.221, 1077 632.248, 1077 632.726 C 1077 633.203, 1075.200 635.352, 1073 637.500 C 1070.800 639.648, 1069 641.937, 1069 642.587 C 1069 643.236, 1067.200 645.393, 1065 647.381 C 1062.800 649.369, 1061 651.355, 1061 651.794 C 1061 652.234, 1059.200 654.352, 1057 656.500 C 1054.800 658.648, 1053 660.803, 1053 661.288 C 1053 662.291, 1041.160 676.077, 1039.250 677.300 C 1038.563 677.740, 1038 678.661, 1038 679.347 C 1038 680.033, 1036.200 682.352, 1034 684.500 C 1031.800 686.648, 1030 689.004, 1030 689.734 C 1030 691.934, 1027.057 692.362, 1024.963 690.466 C 1023.883 689.489, 1023 688.240, 1023 687.690 C 1023 687.140, 1021.200 684.978, 1019 682.885 C 1016.800 680.792, 1015 678.696, 1015 678.227 C 1015 677.758, 1013.650 676.081, 1012 674.500 C 1010.350 672.919, 1009 671.129, 1009 670.521 C 1009 669.914, 1006.975 667.429, 1004.500 665 C 1002.025 662.571, 1000 660.226, 1000 659.789 C 1000 659.352, 998.200 657.369, 996 655.381 C 993.800 653.393, 992 651.233, 992 650.580 C 992 649.927, 990.425 647.866, 988.500 646 C 986.575 644.134, 984.996 642.133, 984.992 641.554 C 984.988 640.974, 982.963 638.714, 980.492 636.532 C 978.021 634.350, 976 632.079, 976 631.485 C 976 630.892, 974.200 628.648, 972 626.500 C 969.800 624.352, 968 622.183, 968 621.680 C 968 621.177, 966.200 619.019, 964 616.884 C 961.800 614.749, 960 612.643, 960 612.204 C 960 611.765, 958.200 609.648, 956 607.500 C 953.800 605.352, 952 603.095, 952 602.484 C 952 601.874, 950.650 600.081, 949 598.500 C 947.350 596.919, 946 595.083, 946 594.420 C 946 593.408, 943.917 592, 942.418 592 C 942.188 592, 942 609.466, 942 630.813 M 160.250 602.496 C 159.262 603.618, 159 634.756, 159 750.998 L 159 898.080 226.167 897.790 C 278.804 897.563, 293.424 897.230, 293.750 896.250 C 293.979 895.563, 295.299 895, 296.682 895 C 301.616 895, 318.560 886.586, 324.055 881.408 C 325.460 880.084, 327.044 879, 327.576 879 C 328.950 879, 346 861.698, 346 860.303 C 346 859.666, 347.036 858.325, 348.303 857.323 C 349.570 856.320, 350.925 854.825, 351.314 854 C 351.703 853.175, 352.912 851.150, 354 849.500 C 355.088 847.850, 356.288 845.825, 356.666 845 C 357.044 844.175, 357.612 843.275, 357.927 843 C 358.913 842.140, 361.032 838.578, 361.646 836.750 C 361.969 835.788, 362.595 835, 363.037 835 C 363.479 835, 364.138 833.650, 364.500 832 C 364.862 830.350, 365.568 829, 366.068 829 C 366.567 829, 367.264 827.200, 367.616 825 C 367.968 822.800, 368.596 821, 369.011 821 C 369.685 821, 370.938 818.221, 371.490 815.500 C 371.796 813.993, 373.041 810.700, 373.981 808.911 C 374.440 808.037, 375.134 804.775, 375.523 801.661 C 375.912 798.547, 376.588 796, 377.025 796 C 377.463 796, 378.140 792.168, 378.530 787.485 C 378.920 782.802, 379.635 778.725, 380.120 778.426 C 380.604 778.127, 381 773.435, 381 768 C 381 762.491, 381.442 757.845, 382 757.500 C 383.303 756.695, 383.303 744.305, 382 743.500 C 381.432 743.149, 381 738.176, 381 732 C 381 726.015, 380.588 720.863, 380.085 720.552 C 379.581 720.241, 378.853 716.615, 378.467 712.493 C 378.081 708.372, 377.420 705, 376.998 705 C 376.576 705, 375.912 702.453, 375.523 699.339 C 375.134 696.225, 374.440 692.963, 373.981 692.089 C 373.041 690.300, 371.796 687.007, 371.490 685.500 C 370.938 682.779, 369.685 680, 369.011 680 C 368.596 680, 367.968 678.200, 367.616 676 C 367.264 673.800, 366.567 672, 366.068 672 C 365.568 672, 364.862 670.650, 364.500 669 C 364.138 667.350, 363.533 666, 363.156 666 C 362.780 666, 361.692 664.200, 360.739 662 C 359.786 659.800, 358.607 658, 358.120 658 C 357.632 658, 356.961 657.212, 356.628 656.250 C 356.296 655.288, 355.123 653.150, 354.023 651.500 C 352.922 649.850, 351.703 647.825, 351.314 647 C 350.925 646.175, 349.570 644.680, 348.303 643.677 C 347.036 642.675, 346 641.316, 346 640.658 C 346 639.337, 327.950 621, 326.650 621 C 326.202 621, 323.961 619.506, 321.668 617.680 C 319.376 615.855, 314.800 613.042, 311.500 611.430 C 308.200 609.819, 305.275 608.227, 305 607.894 C 304.725 607.561, 302.700 606.958, 300.500 606.555 C 298.300 606.151, 295.971 605.384, 295.325 604.850 C 294.679 604.317, 290.051 603.614, 285.041 603.290 C 280.031 602.965, 275.696 602.317, 275.407 601.850 C 275.118 601.382, 249.371 601.017, 218.191 601.038 C 170.511 601.070, 161.301 601.302, 160.250 602.496 M 1139.750 635.737 C 1138.237 637.317, 1137 639.056, 1137 639.602 C 1137 640.148, 1135.200 642.352, 1133 644.500 C 1130.800 646.648, 1129 648.766, 1129 649.206 C 1129 649.645, 1127.200 651.631, 1125 653.619 C 1122.800 655.607, 1121 657.764, 1121 658.413 C 1121 659.063, 1119.200 661.352, 1117 663.500 C 1114.800 665.648, 1113 667.800, 1113 668.281 C 1113 668.763, 1111.200 670.835, 1109 672.886 C 1106.800 674.938, 1105 677.068, 1105 677.621 C 1105 678.174, 1103.650 679.919, 1102 681.500 C 1100.350 683.081, 1099 684.811, 1099 685.346 C 1099 685.880, 1096.750 688.509, 1094 691.188 C 1091.250 693.867, 1089 696.404, 1089 696.826 C 1089 697.249, 1087.200 699.352, 1085 701.500 C 1082.800 703.648, 1081 705.901, 1081 706.507 C 1081 707.112, 1079.425 709.134, 1077.500 711 C 1075.575 712.866, 1074 714.755, 1074 715.199 C 1074 715.642, 1072.200 717.631, 1070 719.619 C 1067.800 721.607, 1066 723.764, 1066 724.413 C 1066 725.063, 1064.200 727.352, 1062 729.500 C 1059.800 731.648, 1058 733.800, 1058 734.281 C 1058 734.763, 1056.200 736.835, 1054 738.886 C 1051.800 740.938, 1050 742.928, 1050 743.308 C 1050 743.689, 1085.100 744, 1128 744 C 1170.900 744, 1206 743.689, 1206 743.308 C 1206 742.928, 1204.200 740.938, 1202 738.886 C 1199.800 736.835, 1198 734.763, 1198 734.281 C 1198 733.800, 1196.200 731.648, 1194 729.500 C 1191.800 727.352, 1190 725.197, 1190 724.712 C 1190 723.709, 1178.160 709.923, 1176.250 708.700 C 1175.563 708.260, 1175 707.339, 1175 706.653 C 1175 705.967, 1173.200 703.648, 1171 701.500 C 1168.800 699.352, 1167 697.235, 1167 696.797 C 1167 696.359, 1165.200 694.200, 1163 692 C 1160.800 689.800, 1159 687.641, 1159 687.203 C 1159 686.765, 1157.200 684.648, 1155 682.500 C 1152.800 680.352, 1150.999 678.123, 1150.998 677.547 C 1150.997 676.971, 1149.208 674.817, 1147.021 672.759 L 1143.045 669.018 1142.773 650.942 L 1142.500 632.865 1139.750 635.737 M 444.239 696.713 L 444.500 740.500 500.913 740.758 C 550.182 740.984, 557.621 740.823, 559.663 739.485 C 560.948 738.643, 562 737.289, 562 736.477 C 562 735.665, 562.451 735, 563.003 735 C 563.555 735, 564.786 733.200, 565.739 731 C 566.692 728.800, 567.810 727, 568.224 727 C 568.638 727, 569.264 725.200, 569.616 723 C 569.968 720.800, 570.606 719, 571.034 719 C 571.462 719, 572.122 716.751, 572.500 714.001 C 572.878 711.252, 573.562 708.771, 574.020 708.488 C 574.477 708.205, 575.169 703.920, 575.557 698.965 C 575.944 694.010, 576.653 689.715, 577.131 689.419 C 578.287 688.704, 578.253 673.275, 577.094 672.558 C 576.595 672.250, 575.874 669.716, 575.490 666.928 C 575.094 664.048, 574.189 661.626, 573.396 661.322 C 572.628 661.027, 572 660.159, 572 659.393 C 572 658.627, 571.635 658, 571.189 658 C 570.742 658, 569.291 656.987, 567.963 655.750 L 565.548 653.500 504.764 653.213 L 443.979 652.927 444.239 696.713 M 205 750.509 L 205 843.123 245.250 842.764 L 285.500 842.405 292.427 838.710 C 296.237 836.678, 300.316 834.112, 301.492 833.008 C 302.667 831.903, 303.905 831, 304.243 831 C 305.267 831, 312 824.332, 312 823.319 C 312 822.799, 313.350 821.081, 315 819.500 C 316.650 817.919, 318 816.035, 318 815.313 C 318 814.591, 318.370 814, 318.823 814 C 319.533 814, 321.422 810.861, 325.487 802.927 C 326.030 801.867, 326.818 801, 327.237 801 C 327.657 801, 328 799.975, 328 798.723 C 328 797.470, 328.661 795.502, 329.468 794.349 C 330.275 793.197, 331.233 790.396, 331.596 788.127 C 331.959 785.857, 332.648 784, 333.128 784 C 333.608 784, 334 782.677, 334 781.059 C 334 779.441, 334.435 777.849, 334.967 777.520 C 335.499 777.191, 335.663 775.563, 335.330 773.901 C 334.998 772.240, 335.259 769.884, 335.911 768.667 C 337.563 765.580, 336.504 725.171, 334.724 723.391 C 334.326 722.993, 334 721.392, 334 719.833 C 334 718.275, 333.608 717, 333.128 717 C 332.648 717, 331.959 715.143, 331.596 712.873 C 331.233 710.604, 330.275 707.803, 329.468 706.651 C 328.661 705.498, 328 703.530, 328 702.277 C 328 701.025, 327.599 700, 327.108 700 C 326.618 700, 325.914 698.793, 325.543 697.317 C 324.959 694.988, 323.734 693.116, 318.985 687.292 C 318.443 686.628, 318 685.685, 318 685.197 C 318 684.709, 317.100 683.495, 316 682.500 C 314.900 681.505, 314 680.292, 314 679.806 C 314 677.567, 302.385 667.334, 297.250 665.050 C 296.012 664.500, 295 663.624, 295 663.104 C 295 662.584, 293.538 661.846, 291.750 661.464 C 289.962 661.082, 287.869 660.259, 287.098 659.635 C 286.118 658.842, 273.530 658.409, 245.348 658.198 L 205 657.895 205 750.509 M 763.576 788.750 C 764.016 791.938, 765.222 795, 766.037 795 C 766.479 795, 767.138 796.350, 767.500 798 C 767.862 799.650, 768.573 801, 769.079 801 C 769.586 801, 770 801.513, 770 802.140 C 770 803.903, 774.251 812, 775.177 812 C 775.630 812, 776 812.597, 776 813.326 C 776 814.055, 777.125 815.708, 778.500 817 C 779.875 818.292, 781.005 819.833, 781.012 820.424 C 781.027 821.811, 794.039 834.794, 797.137 836.516 C 802.593 839.546, 809.952 843, 810.952 843 C 811.543 843, 812.921 843.450, 814.014 844 C 815.106 844.550, 816.931 845.473, 818.068 846.051 C 820.623 847.349, 847.934 847.667, 848.842 846.409 C 849.646 845.295, 853.621 843.364, 857 842.447 C 858.375 842.073, 860.932 840.695, 862.683 839.384 C 864.434 838.073, 866.251 837, 866.721 837 C 867.837 837, 877 827.693, 877 826.560 C 877 826.081, 878.068 824.289, 879.373 822.578 C 880.678 820.867, 882.067 817.565, 882.460 815.239 C 882.853 812.913, 883.585 810.757, 884.087 810.446 C 884.589 810.136, 885 808.559, 885 806.941 C 885 805.323, 885.384 804, 885.853 804 C 886.322 804, 886.496 801.808, 886.238 799.130 C 885.951 796.140, 886.201 793.994, 886.885 793.571 C 887.498 793.192, 888 791.559, 888 789.941 L 888 787 825.667 787 C 766.877 787, 763.348 787.099, 763.576 788.750" stroke="none" fill="#000000" fill-rule="evenodd"/><path d="M 91 744 L 91 967 349.500 967 C 491.675 967, 608 966.649, 608 966.221 C 608 965.792, 607.100 964.793, 606 964 C 604.900 963.207, 604 962.067, 604 961.466 C 604 960.866, 602.650 959.081, 601 957.500 C 599.350 955.919, 598 954.278, 598 953.854 C 598 953.429, 596.874 951.826, 595.499 950.291 C 590.357 944.555, 587 940.207, 587 939.283 C 587 938.759, 585.650 937.128, 584 935.658 C 582.350 934.187, 581 932.490, 581 931.886 C 581 931.282, 579.875 929.903, 578.500 928.821 C 577.125 927.740, 576 926.297, 576 925.615 C 576 924.932, 574.650 923.081, 573 921.500 C 571.350 919.919, 570 918.035, 570 917.313 C 570 916.233, 531.395 916, 352.519 916 L 135.038 916 134.495 913.750 C 134.197 912.512, 134.076 835.675, 134.226 743 L 134.500 574.500 749 574.249 L 1363.500 573.998 1363.253 744.749 L 1363.006 915.500 1016.333 915.751 C 694.820 915.985, 669.528 915.883, 667.830 914.346 C 666.824 913.435, 666 912.195, 666 911.591 C 666 910.986, 646.200 890.695, 622 866.500 C 597.800 842.305, 578 822.254, 578 821.943 C 578 821.632, 570.517 813.932, 561.370 804.833 L 544.741 788.288 556.514 787.563 C 562.989 787.164, 569.010 786.468, 569.893 786.017 C 570.777 785.565, 574.425 783.780, 578 782.050 C 584.740 778.788, 594.796 771.294, 594.926 769.437 C 594.967 768.852, 596.350 767.081, 598 765.500 C 599.650 763.919, 601 762.183, 601 761.642 C 601 761.100, 601.659 759.929, 602.464 759.040 C 604.708 756.560, 610.696 744.662, 611.467 741.149 C 611.845 739.430, 612.569 737.766, 613.077 737.452 C 613.585 737.139, 614 735.585, 614 734 C 614 732.415, 614.481 730.821, 615.068 730.458 C 615.656 730.095, 615.895 729.168, 615.600 728.399 C 615.304 727.629, 615.499 727, 616.031 727 C 616.564 727, 617 725.425, 617 723.500 C 617 721.575, 617.416 720, 617.925 720 C 618.434 720, 619.167 715.940, 619.556 710.978 C 619.944 706.016, 620.653 701.715, 621.131 701.419 C 622.268 700.716, 622.266 661, 621.129 661 C 620.650 661, 619.942 657.791, 619.556 653.869 C 619.169 649.947, 618.469 646.009, 618 645.119 C 617.530 644.228, 616.815 642.600, 616.409 641.500 C 616.004 640.400, 615.573 639.275, 615.452 639 C 615.330 638.725, 614.902 637.487, 614.499 636.250 C 614.096 635.013, 613.405 634, 612.963 634 C 612.521 634, 611.862 632.650, 611.500 631 C 611.138 629.350, 610.427 628, 609.921 628 C 609.414 628, 609 627.425, 609 626.723 C 609 625.304, 595.961 612, 594.569 612 C 594.085 612, 592.259 610.910, 590.512 609.577 C 588.764 608.244, 585.572 606.829, 583.417 606.432 C 581.263 606.036, 579.220 605.280, 578.878 604.753 C 578.535 604.226, 574.359 603.552, 569.598 603.255 C 564.837 602.957, 560.703 602.329, 560.412 601.857 C 560.120 601.386, 523.909 601, 479.941 601 L 400 601 400 749.500 L 400 898 422 898 L 444 898 444 826 C 444 786.400, 444.340 754, 444.757 754 C 446.057 754, 502 810.445, 502 811.756 C 502 812.440, 502.597 813, 503.326 813 C 504.547 813, 509 817.008, 509 818.107 C 509 818.370, 521.375 830.930, 536.500 846.018 C 551.625 861.107, 564 873.916, 564 874.483 C 564 875.051, 575.250 886.758, 589 900.500 C 602.750 914.242, 614 925.841, 614 926.276 C 614 926.711, 615.238 928.357, 616.750 929.933 C 621.374 934.751, 627 941.788, 627 942.754 C 627 943.258, 628.350 944.872, 630 946.342 C 631.650 947.813, 633 949.491, 633 950.072 C 633 950.654, 634.350 952.265, 636 953.653 C 637.650 955.042, 639.011 956.700, 639.025 957.339 C 639.039 957.978, 640.855 960.413, 643.061 962.750 L 647.072 967 1031.036 967 L 1415 967 1415 744 L 1415 521 753 521 L 91 521 91 744 M 942 630.813 L 942 669.626 945 672.500 C 946.650 674.081, 948 675.758, 948 676.227 C 948 676.696, 949.800 678.792, 952 680.885 C 954.200 682.978, 956 685.119, 956 685.642 C 956 686.166, 957.800 688.352, 960 690.500 C 962.200 692.648, 964 694.791, 964 695.261 C 964 695.732, 965.531 697.778, 967.402 699.809 C 975.436 708.528, 979 712.784, 979 713.659 C 979 714.173, 980.800 716.352, 983 718.500 C 985.200 720.648, 987 722.766, 987 723.206 C 987 723.645, 988.800 725.631, 991 727.619 C 993.200 729.607, 995 731.729, 995 732.335 C 995 732.941, 997.347 735.814, 1000.216 738.719 L 1005.432 744 881.216 744 L 757 744 757 740 C 757 737.800, 757.385 736, 757.856 736 C 758.327 736, 759.015 732.747, 759.385 728.772 C 759.754 724.796, 760.494 721.106, 761.028 720.572 C 761.563 720.037, 762 718.367, 762 716.859 C 762 715.351, 762.462 713.833, 763.027 713.484 C 763.591 713.135, 763.992 712.321, 763.918 711.675 C 763.699 709.770, 765.160 706, 766.117 706 C 766.602 706, 767 704.861, 767 703.469 C 767 702.076, 767.675 700.678, 768.500 700.362 C 769.325 700.045, 770 699.359, 770 698.838 C 770 696.969, 774.070 689, 775.025 689 C 775.561 689, 776 688.403, 776 687.674 C 776 686.945, 777.125 685.292, 778.500 684 C 779.875 682.708, 781 681.156, 781 680.551 C 781 679.118, 795.209 665, 796.651 665 C 797.258 665, 798.305 664.337, 798.978 663.526 C 799.651 662.716, 801.731 661.766, 803.600 661.415 C 805.470 661.064, 807 660.398, 807 659.934 C 807 659.470, 808.688 658.821, 810.750 658.491 C 812.813 658.161, 815.281 657.465, 816.236 656.945 C 818.434 655.749, 831.697 655.701, 832.430 656.887 C 832.731 657.374, 834.508 658.060, 836.378 658.411 C 838.248 658.762, 841.741 660.157, 844.139 661.512 C 846.538 662.866, 849.175 664.284, 850 664.663 C 850.825 665.041, 852.491 666.397, 853.702 667.675 C 854.913 668.954, 856.278 670, 856.734 670 C 857.785 670, 869 681.288, 869 682.346 C 869 682.780, 870.575 684.620, 872.500 686.435 C 874.425 688.251, 876 690.176, 876 690.713 C 876 691.250, 876.900 692.505, 878 693.500 C 879.100 694.495, 880 695.722, 880 696.226 C 880 696.730, 880.705 697.848, 881.567 698.709 C 882.989 700.131, 883.496 699.922, 887.067 696.435 C 889.230 694.323, 891 692.078, 891 691.447 C 891 690.816, 892.350 689.265, 894 688 C 895.650 686.735, 897 685.172, 897 684.525 C 897 683.878, 898.125 682.292, 899.500 681 C 900.875 679.708, 902 678.146, 902 677.529 C 902 676.911, 903.331 675.302, 904.958 673.953 C 906.584 672.604, 907.934 671.069, 907.958 670.542 C 907.981 670.015, 909.656 667.888, 911.681 665.815 C 915.206 662.205, 915.301 661.927, 913.931 659.272 C 913.144 657.748, 911.487 655.680, 910.250 654.677 C 909.013 653.675, 908 652.297, 908 651.615 C 908 650.932, 906.650 649.081, 905 647.500 C 903.350 645.919, 902 644.254, 902 643.799 C 902 642.711, 885.277 626, 884.189 626 C 883.727 626, 882.292 624.875, 881 623.500 C 879.708 622.125, 878.232 621, 877.720 621 C 877.207 621, 875.148 619.710, 873.144 618.134 C 871.140 616.557, 868.375 614.921, 867 614.499 C 865.625 614.076, 864.275 613.443, 864 613.091 C 862.732 611.469, 852.373 606.927, 848.650 606.359 C 846.367 606.011, 843.868 605.226, 843.095 604.613 C 842.180 603.888, 835.355 603.500, 823.499 603.500 C 811.642 603.500, 804.818 603.888, 803.904 604.613 C 803.132 605.226, 800.647 606.009, 798.382 606.354 C 796.118 606.699, 792.968 607.658, 791.382 608.484 C 789.797 609.311, 787.894 609.990, 787.154 609.994 C 786.414 609.997, 784.391 611.013, 782.659 612.250 C 780.926 613.487, 777.997 615.313, 776.150 616.308 C 772.072 618.503, 771.303 619.103, 764.049 625.750 C 760.897 628.638, 757.797 631, 757.160 631 C 756.522 631, 756 631.522, 756 632.160 C 756 632.797, 753.638 635.897, 750.750 639.049 C 747.862 642.200, 745.050 645.415, 744.500 646.194 C 742.356 649.228, 740.955 651.592, 740.022 653.750 C 739.487 654.987, 738.695 656, 738.261 656 C 737.439 656, 734 663.271, 734 665.007 C 734 665.553, 733.586 666, 733.079 666 C 732.573 666, 731.862 667.350, 731.500 669 C 731.138 670.650, 730.479 672, 730.037 672 C 729.299 672, 727.908 675.104, 727.573 677.500 C 727.495 678.050, 726.637 680.075, 725.665 682 C 724.693 683.925, 723.635 687.413, 723.313 689.750 C 722.991 692.087, 722.362 694, 721.914 694 C 721.466 694, 720.793 696.710, 720.418 700.022 C 720.043 703.335, 719.346 706.286, 718.868 706.581 C 718.391 706.877, 718 709.090, 718 711.500 C 718 713.910, 717.498 716.192, 716.885 716.571 C 716.201 716.994, 715.951 719.140, 716.238 722.130 C 716.496 724.808, 716.322 727, 715.853 727 C 715.384 727, 715 730.825, 715 735.500 L 715 744 705.500 744 L 696 744 696 672.500 L 696 601 671 601 L 646 601 646 672.500 L 646 744 634.980 744 L 623.960 744 624.230 765.250 L 624.500 786.500 635.250 786.784 L 646 787.068 646 814.879 C 646 841.420, 646.091 842.773, 648 844.500 C 649.100 845.495, 650 846.832, 650 847.471 C 650 848.110, 651.575 850.026, 653.500 851.731 C 655.425 853.435, 657 855.234, 657 855.728 C 657 856.222, 658.350 857.919, 660 859.500 C 661.650 861.081, 663 862.881, 663 863.500 C 663 864.119, 664.350 865.919, 666 867.500 C 667.650 869.081, 669 870.754, 669 871.218 C 669 871.682, 670.575 873.444, 672.500 875.134 C 674.425 876.824, 676 878.751, 676 879.417 C 676 880.082, 677.350 881.919, 679 883.500 C 680.650 885.081, 682 886.773, 682 887.260 C 682 887.748, 683.800 889.762, 686 891.737 C 688.200 893.712, 690 895.860, 690 896.509 C 690 897.978, 693.250 901, 694.829 901 C 695.710 901, 696 886.890, 696 844 L 696 787 707 787 L 718 787 718 790.441 C 718 792.334, 718.406 794.133, 718.902 794.439 C 719.397 794.746, 720.117 797.697, 720.500 800.998 C 720.883 804.299, 721.543 807, 721.967 807 C 722.390 807, 722.992 808.903, 723.304 811.228 C 723.616 813.554, 724.350 815.617, 724.935 815.812 C 725.521 816.007, 726 817.179, 726 818.417 C 726 819.654, 726.332 820.998, 726.737 821.404 C 727.143 821.809, 727.528 822.672, 727.594 823.321 C 727.833 825.696, 729.255 829, 730.037 829 C 730.479 829, 731.138 830.350, 731.500 832 C 731.862 833.650, 732.537 835, 733 835 C 733.463 835, 734.131 836.319, 734.485 837.931 C 734.839 839.543, 735.844 841.455, 736.719 842.181 C 737.594 842.906, 738.922 844.850, 739.670 846.500 C 741.671 850.914, 743.230 853.226, 745.750 855.518 C 746.987 856.643, 748 858.008, 748 858.551 C 748 859.936, 767.283 879, 768.685 879 C 769.316 879, 769.983 879.354, 770.167 879.786 C 771.164 882.139, 788.803 892, 792.014 892 C 793.041 892, 794.144 892.424, 794.464 892.942 C 794.785 893.460, 797.174 894.198, 799.773 894.581 C 802.373 894.964, 804.821 895.778, 805.214 896.389 C 806.185 897.900, 847.227 897.865, 849.139 896.352 C 849.888 895.760, 852.941 895, 855.923 894.664 C 858.906 894.328, 861.809 893.591, 862.373 893.027 C 862.938 892.462, 864.399 892, 865.619 892 C 867.908 892, 874.243 889.078, 874.833 887.750 C 875.017 887.337, 875.607 887, 876.145 887 C 878.101 887, 887.734 881.951, 889.499 880.001 C 890.495 878.901, 891.676 878, 892.124 878 C 893.162 878, 905 866.163, 905 865.125 C 905 864.698, 906.125 863.292, 907.500 862 C 908.875 860.708, 910 859.041, 910 858.294 C 910 857.548, 910.631 856.695, 911.401 856.399 C 912.172 856.104, 913.067 855.105, 913.390 854.181 C 913.713 853.256, 914.887 851.150, 916 849.500 C 917.113 847.850, 918.296 845.712, 918.628 844.750 C 918.961 843.788, 919.595 843, 920.037 843 C 920.479 843, 921.138 841.650, 921.500 840 C 921.862 838.350, 922.573 837, 923.079 837 C 923.586 837, 924.014 835.987, 924.032 834.750 C 924.049 833.513, 924.724 831.626, 925.532 830.559 C 926.339 829.491, 927 827.579, 927 826.309 C 927 825.039, 927.435 824, 927.966 824 C 928.497 824, 929.231 821.740, 929.597 818.978 C 929.964 816.215, 930.654 813.714, 931.132 813.419 C 931.609 813.123, 932 811.135, 932 809 C 932 806.865, 932.501 804.808, 933.114 804.429 C 933.780 804.018, 934.020 802.183, 933.709 799.870 C 933.424 797.742, 933.597 796, 934.095 796 C 934.593 796, 935 793.975, 935 791.500 L 935 787 970.500 787 L 1006 787 1006 846.500 C 1006 890.682, 1006.296 906, 1007.150 906 C 1007.783 906, 1017.229 897.112, 1028.142 886.250 L 1047.984 866.500 1047.992 826.750 L 1048 787 1128 787 L 1208 787 1208 846.583 C 1208 884.742, 1208.350 906.047, 1208.972 905.833 C 1209.507 905.650, 1218.957 896.526, 1229.972 885.558 L 1250 865.616 1250 826.308 L 1250 787 1270.250 786.968 C 1285.622 786.944, 1290.927 786.613, 1292.272 785.592 C 1293.879 784.372, 1294.018 782.411, 1293.772 764.374 L 1293.500 744.500 1272.210 744 L 1250.919 743.500 1255.960 738.538 C 1258.732 735.808, 1261 733.134, 1261 732.596 C 1261 732.057, 1262.800 729.938, 1265 727.886 C 1267.200 725.835, 1269 723.763, 1269 723.281 C 1269 722.800, 1270.800 720.648, 1273 718.500 C 1275.200 716.352, 1277 714.197, 1277 713.712 C 1277 712.709, 1288.840 698.923, 1290.750 697.700 C 1291.438 697.260, 1292 696.339, 1292 695.653 C 1292 694.967, 1293.800 692.648, 1296 690.500 C 1298.200 688.352, 1300 686.235, 1300 685.797 C 1300 685.359, 1301.800 683.200, 1304 681 C 1306.200 678.800, 1308 676.641, 1308 676.203 C 1308 675.765, 1309.800 673.648, 1312 671.500 C 1314.200 669.352, 1316.001 667.123, 1316.002 666.547 C 1316.003 665.971, 1317.803 663.807, 1320.002 661.738 C 1322.201 659.669, 1324 657.623, 1324 657.191 C 1324 656.759, 1325.800 654.648, 1328 652.500 C 1330.200 650.352, 1332 648.170, 1332 647.651 C 1332 646.819, 1334.461 643.876, 1343.569 633.814 C 1346.745 630.304, 1346.837 627.542, 1343.750 628.370 C 1342.513 628.701, 1327.873 628.979, 1311.219 628.986 C 1283.290 628.999, 1280.889 629.136, 1280.315 630.750 C 1279.972 631.712, 1277.961 634.152, 1275.846 636.172 C 1273.731 638.191, 1272 640.237, 1272 640.719 C 1272 641.200, 1270.200 643.352, 1268 645.500 C 1265.800 647.648, 1264 649.803, 1264 650.288 C 1264 651.291, 1252.160 665.077, 1250.250 666.300 C 1249.563 666.740, 1249 667.661, 1249 668.347 C 1249 669.033, 1247.200 671.352, 1245 673.500 C 1242.800 675.648, 1241 677.765, 1241 678.203 C 1241 678.641, 1239.200 680.800, 1237 683 C 1234.800 685.200, 1233 687.380, 1233 687.845 C 1233 688.310, 1232.165 689.446, 1231.145 690.369 C 1229.196 692.133, 1226 691.652, 1226 689.596 C 1226 688.941, 1224.200 686.648, 1222 684.500 C 1219.800 682.352, 1218 680.197, 1218 679.711 C 1218 678.848, 1217.173 677.864, 1207.645 667.396 C 1205.090 664.589, 1203 661.868, 1203 661.349 C 1203 660.830, 1201.200 658.648, 1199 656.500 C 1196.800 654.352, 1195 652.200, 1195 651.719 C 1195 651.237, 1193.200 649.165, 1191 647.114 C 1188.800 645.062, 1187 642.939, 1187 642.395 C 1187 641.851, 1185.200 639.648, 1183 637.500 C 1180.800 635.352, 1179 633.183, 1179 632.680 C 1179 632.177, 1177.200 630.019, 1175 627.884 C 1172.800 625.749, 1171 623.643, 1171 623.204 C 1171 622.765, 1169.200 620.648, 1167 618.500 C 1164.800 616.352, 1163 614.189, 1163 613.694 C 1163 613.198, 1159.737 609.127, 1155.750 604.646 C 1151.763 600.166, 1148.002 595.600, 1147.393 594.500 C 1146.784 593.400, 1145.557 592.356, 1144.666 592.181 C 1143.227 591.898, 1143.015 593.918, 1142.773 610.181 L 1142.500 628.500 1111.164 628.764 C 1085.751 628.979, 1079.561 629.296, 1078.414 630.443 C 1077.636 631.221, 1077 632.248, 1077 632.726 C 1077 633.203, 1075.200 635.352, 1073 637.500 C 1070.800 639.648, 1069 641.937, 1069 642.587 C 1069 643.236, 1067.200 645.393, 1065 647.381 C 1062.800 649.369, 1061 651.355, 1061 651.794 C 1061 652.234, 1059.200 654.352, 1057 656.500 C 1054.800 658.648, 1053 660.803, 1053 661.288 C 1053 662.291, 1041.160 676.077, 1039.250 677.300 C 1038.563 677.740, 1038 678.661, 1038 679.347 C 1038 680.033, 1036.200 682.352, 1034 684.500 C 1031.800 686.648, 1030 689.004, 1030 689.734 C 1030 691.934, 1027.057 692.362, 1024.963 690.466 C 1023.883 689.489, 1023 688.240, 1023 687.690 C 1023 687.140, 1021.200 684.978, 1019 682.885 C 1016.800 680.792, 1015 678.696, 1015 678.227 C 1015 677.758, 1013.650 676.081, 1012 674.500 C 1010.350 672.919, 1009 671.129, 1009 670.521 C 1009 669.914, 1006.975 667.429, 1004.500 665 C 1002.025 662.571, 1000 660.226, 1000 659.789 C 1000 659.352, 998.200 657.369, 996 655.381 C 993.800 653.393, 992 651.233, 992 650.580 C 992 649.927, 990.425 647.866, 988.500 646 C 986.575 644.134, 984.996 642.133, 984.992 641.554 C 984.988 640.974, 982.963 638.714, 980.492 636.532 C 978.021 634.350, 976 632.079, 976 631.485 C 976 630.892, 974.200 628.648, 972 626.500 C 969.800 624.352, 968 622.183, 968 621.680 C 968 621.177, 966.200 619.019, 964 616.884 C 961.800 614.749, 960 612.643, 960 612.204 C 960 611.765, 958.200 609.648, 956 607.500 C 953.800 605.352, 952 603.095, 952 602.484 C 952 601.874, 950.650 600.081, 949 598.500 C 947.350 596.919, 946 595.083, 946 594.420 C 946 593.408, 943.917 592, 942.418 592 C 942.188 592, 942 609.466, 942 630.813 M 160.250 602.496 C 159.262 603.618, 159 634.756, 159 750.998 L 159 898.080 226.167 897.790 C 278.804 897.563, 293.424 897.230, 293.750 896.250 C 293.979 895.563, 295.299 895, 296.682 895 C 301.616 895, 318.560 886.586, 324.055 881.408 C 325.460 880.084, 327.044 879, 327.576 879 C 328.950 879, 346 861.698, 346 860.303 C 346 859.666, 347.036 858.325, 348.303 857.323 C 349.570 856.320, 350.925 854.825, 351.314 854 C 351.703 853.175, 352.912 851.150, 354 849.500 C 355.088 847.850, 356.288 845.825, 356.666 845 C 357.044 844.175, 357.612 843.275, 357.927 843 C 358.913 842.140, 361.032 838.578, 361.646 836.750 C 361.969 835.788, 362.595 835, 363.037 835 C 363.479 835, 364.138 833.650, 364.500 832 C 364.862 830.350, 365.568 829, 366.068 829 C 366.567 829, 367.264 827.200, 367.616 825 C 367.968 822.800, 368.596 821, 369.011 821 C 369.685 821, 370.938 818.221, 371.490 815.500 C 371.796 813.993, 373.041 810.700, 373.981 808.911 C 374.440 808.037, 375.134 804.775, 375.523 801.661 C 375.912 798.547, 376.588 796, 377.025 796 C 377.463 796, 378.140 792.168, 378.530 787.485 C 378.920 782.802, 379.635 778.725, 380.120 778.426 C 380.604 778.127, 381 773.435, 381 768 C 381 762.491, 381.442 757.845, 382 757.500 C 383.303 756.695, 383.303 744.305, 382 743.500 C 381.432 743.149, 381 738.176, 381 732 C 381 726.015, 380.588 720.863, 380.085 720.552 C 379.581 720.241, 378.853 716.615, 378.467 712.493 C 378.081 708.372, 377.420 705, 376.998 705 C 376.576 705, 375.912 702.453, 375.523 699.339 C 375.134 696.225, 374.440 692.963, 373.981 692.089 C 373.041 690.300, 371.796 687.007, 371.490 685.500 C 370.938 682.779, 369.685 680, 369.011 680 C 368.596 680, 367.968 678.200, 367.616 676 C 367.264 673.800, 366.567 672, 366.068 672 C 365.568 672, 364.862 670.650, 364.500 669 C 364.138 667.350, 363.533 666, 363.156 666 C 362.780 666, 361.692 664.200, 360.739 662 C 359.786 659.800, 358.607 658, 358.120 658 C 357.632 658, 356.961 657.212, 356.628 656.250 C 356.296 655.288, 355.123 653.150, 354.023 651.500 C 352.922 649.850, 351.703 647.825, 351.314 647 C 350.925 646.175, 349.570 644.680, 348.303 643.677 C 347.036 642.675, 346 641.316, 346 640.658 C 346 639.337, 327.950 621, 326.650 621 C 326.202 621, 323.961 619.506, 321.668 617.680 C 319.376 615.855, 314.800 613.042, 311.500 611.430 C 308.200 609.819, 305.275 608.227, 305 607.894 C 304.725 607.561, 302.700 606.958, 300.500 606.555 C 298.300 606.151, 295.971 605.384, 295.325 604.850 C 294.679 604.317, 290.051 603.614, 285.041 603.290 C 280.031 602.965, 275.696 602.317, 275.407 601.850 C 275.118 601.382, 249.371 601.017, 218.191 601.038 C 170.511 601.070, 161.301 601.302, 160.250 602.496 M 1139.750 635.737 C 1138.237 637.317, 1137 639.056, 1137 639.602 C 1137 640.148, 1135.200 642.352, 1133 644.500 C 1130.800 646.648, 1129 648.766, 1129 649.206 C 1129 649.645, 1127.200 651.631, 1125 653.619 C 1122.800 655.607, 1121 657.764, 1121 658.413 C 1121 659.063, 1119.200 661.352, 1117 663.500 C 1114.800 665.648, 1113 667.800, 1113 668.281 C 1113 668.763, 1111.200 670.835, 1109 672.886 C 1106.800 674.938, 1105 677.068, 1105 677.621 C 1105 678.174, 1103.650 679.919, 1102 681.500 C 1100.350 683.081, 1099 684.811, 1099 685.346 C 1099 685.880, 1096.750 688.509, 1094 691.188 C 1091.250 693.867, 1089 696.404, 1089 696.826 C 1089 697.249, 1087.200 699.352, 1085 701.500 C 1082.800 703.648, 1081 705.901, 1081 706.507 C 1081 707.112, 1079.425 709.134, 1077.500 711 C 1075.575 712.866, 1074 714.755, 1074 715.199 C 1074 715.642, 1072.200 717.631, 1070 719.619 C 1067.800 721.607, 1066 723.764, 1066 724.413 C 1066 725.063, 1064.200 727.352, 1062 729.500 C 1059.800 731.648, 1058 733.800, 1058 734.281 C 1058 734.763, 1056.200 736.835, 1054 738.886 C 1051.800 740.938, 1050 742.928, 1050 743.308 C 1050 743.689, 1085.100 744, 1128 744 C 1170.900 744, 1206 743.689, 1206 743.308 C 1206 742.928, 1204.200 740.938, 1202 738.886 C 1199.800 736.835, 1198 734.763, 1198 734.281 C 1198 733.800, 1196.200 731.648, 1194 729.500 C 1191.800 727.352, 1190 725.197, 1190 724.712 C 1190 723.709, 1178.160 709.923, 1176.250 708.700 C 1175.563 708.260, 1175 707.339, 1175 706.653 C 1175 705.967, 1173.200 703.648, 1171 701.500 C 1168.800 699.352, 1167 697.235, 1167 696.797 C 1167 696.359, 1165.200 694.200, 1163 692 C 1160.800 689.800, 1159 687.641, 1159 687.203 C 1159 686.765, 1157.200 684.648, 1155 682.500 C 1152.800 680.352, 1150.999 678.123, 1150.998 677.547 C 1150.997 676.971, 1149.208 674.817, 1147.021 672.759 L 1143.045 669.018 1142.773 650.942 L 1142.500 632.865 1139.750 635.737 M 444.239 696.713 L 444.500 740.500 500.913 740.758 C 550.182 740.984, 557.621 740.823, 559.663 739.485 C 560.948 738.643, 562 737.289, 562 736.477 C 562 735.665, 562.451 735, 563.003 735 C 563.555 735, 564.786 733.200, 565.739 731 C 566.692 728.800, 567.810 727, 568.224 727 C 568.638 727, 569.264 725.200, 569.616 723 C 569.968 720.800, 570.606 719, 571.034 719 C 571.462 719, 572.122 716.751, 572.500 714.001 C 572.878 711.252, 573.562 708.771, 574.020 708.488 C 574.477 708.205, 575.169 703.920, 575.557 698.965 C 575.944 694.010, 576.653 689.715, 577.131 689.419 C 578.287 688.704, 578.253 673.275, 577.094 672.558 C 576.595 672.250, 575.874 669.716, 575.490 666.928 C 575.094 664.048, 574.189 661.626, 573.396 661.322 C 572.628 661.027, 572 660.159, 572 659.393 C 572 658.627, 571.635 658, 571.189 658 C 570.742 658, 569.291 656.987, 567.963 655.750 L 565.548 653.500 504.764 653.213 L 443.979 652.927 444.239 696.713 M 205 750.509 L 205 843.123 245.250 842.764 L 285.500 842.405 292.427 838.710 C 296.237 836.678, 300.316 834.112, 301.492 833.008 C 302.667 831.903, 303.905 831, 304.243 831 C 305.267 831, 312 824.332, 312 823.319 C 312 822.799, 313.350 821.081, 315 819.500 C 316.650 817.919, 318 816.035, 318 815.313 C 318 814.591, 318.370 814, 318.823 814 C 319.533 814, 321.422 810.861, 325.487 802.927 C 326.030 801.867, 326.818 801, 327.237 801 C 327.657 801, 328 799.975, 328 798.723 C 328 797.470, 328.661 795.502, 329.468 794.349 C 330.275 793.197, 331.233 790.396, 331.596 788.127 C 331.959 785.857, 332.648 784, 333.128 784 C 333.608 784, 334 782.677, 334 781.059 C 334 779.441, 334.435 777.849, 334.967 777.520 C 335.499 777.191, 335.663 775.563, 335.330 773.901 C 334.998 772.240, 335.259 769.884, 335.911 768.667 C 337.563 765.580, 336.504 725.171, 334.724 723.391 C 334.326 722.993, 334 721.392, 334 719.833 C 334 718.275, 333.608 717, 333.128 717 C 332.648 717, 331.959 715.143, 331.596 712.873 C 331.233 710.604, 330.275 707.803, 329.468 706.651 C 328.661 705.498, 328 703.530, 328 702.277 C 328 701.025, 327.599 700, 327.108 700 C 326.618 700, 325.914 698.793, 325.543 697.317 C 324.959 694.988, 323.734 693.116, 318.985 687.292 C 318.443 686.628, 318 685.685, 318 685.197 C 318 684.709, 317.100 683.495, 316 682.500 C 314.900 681.505, 314 680.292, 314 679.806 C 314 677.567, 302.385 667.334, 297.250 665.050 C 296.012 664.500, 295 663.624, 295 663.104 C 295 662.584, 293.538 661.846, 291.750 661.464 C 289.962 661.082, 287.869 660.259, 287.098 659.635 C 286.118 658.842, 273.530 658.409, 245.348 658.198 L 205 657.895 205 750.509 M 763.576 788.750 C 764.016 791.938, 765.222 795, 766.037 795 C 766.479 795, 767.138 796.350, 767.500 798 C 767.862 799.650, 768.573 801, 769.079 801 C 769.586 801, 770 801.513, 770 802.140 C 770 803.903, 774.251 812, 775.177 812 C 775.630 812, 776 812.597, 776 813.326 C 776 814.055, 777.125 815.708, 778.500 817 C 779.875 818.292, 781.005 819.833, 781.012 820.424 C 781.027 821.811, 794.039 834.794, 797.137 836.516 C 802.593 839.546, 809.952 843, 810.952 843 C 811.543 843, 812.921 843.450, 814.014 844 C 815.106 844.550, 816.931 845.473, 818.068 846.051 C 820.623 847.349, 847.934 847.667, 848.842 846.409 C 849.646 845.295, 853.621 843.364, 857 842.447 C 858.375 842.073, 860.932 840.695, 862.683 839.384 C 864.434 838.073, 866.251 837, 866.721 837 C 867.837 837, 877 827.693, 877 826.560 C 877 826.081, 878.068 824.289, 879.373 822.578 C 880.678 820.867, 882.067 817.565, 882.460 815.239 C 882.853 812.913, 883.585 810.757, 884.087 810.446 C 884.589 810.136, 885 808.559, 885 806.941 C 885 805.323, 885.384 804, 885.853 804 C 886.322 804, 886.496 801.808, 886.238 799.130 C 885.951 796.140, 886.201 793.994, 886.885 793.571 C 887.498 793.192, 888 791.559, 888 789.941 L 888 787 825.667 787 C 766.877 787, 763.348 787.099, 763.576 788.750" stroke="none" fill="#000000" fill-rule="evenodd"/></svg>